<svg width="139" height="152" viewBox="0 0 139 152" fill="none" xmlns="http://www.w3.org/2000/svg">
<path d="M138.048 100.5C127.183 94.6718 117.462 90.2108 108.338 87.1348L127.024 119.5C81.6979 95.186 56.2994 94.617 10.9766 119.5L29.7686 86.9492C20.6273 90.0129 10.8887 94.5219 0 100.5L58.0234 0L68.9961 19.0059L69 19L69.0264 19.0459L80.0234 0L138.048 100.5ZM68.7285 82.8379C55.9414 84.6564 42.6164 89.6357 26.9375 97.8516L18.7549 112.026C37.418 102.697 53.1354 97.987 69.0107 98.0508C84.9016 98.1148 100.636 102.961 119.321 112.158L111.087 97.8955C95.1763 89.723 81.6895 84.6757 68.7285 82.8379ZM79.8447 82.0508C88.8013 84.4077 98.1327 88.1316 108.345 93.1582L104.09 85.7881C95.7112 83.3165 87.7796 82.0642 79.8447 82.0508ZM70.7588 22.0459L106.103 83.2637C113.76 85.6116 121.74 88.9225 130.345 93.1582L80.0234 6L70.7588 22.0459ZM7.77832 93.0264C16.3746 88.729 24.3465 85.4138 31.9961 83.0918L67.2637 22.0059L58.0234 6L7.77832 93.0264ZM57.6504 82.0508C49.9328 82.0574 42.2085 83.2353 34.0635 85.6035L29.7783 93.0264C39.7524 88.0403 48.8853 84.3743 57.6504 82.0508ZM36.1963 81.9092C43.6374 79.9807 50.8192 79.0218 58.0342 79.0508C61.5955 79.0651 65.1489 79.3207 68.7295 79.8105C72.5165 79.2912 76.2707 79.0357 80.0342 79.0508C87.2733 79.0799 94.4793 80.1039 101.947 82.0771L69.0225 25.0527L36.1963 81.9092Z" fill="url(#paint0_radial_112_3)"/>
<g clip-path="url(#paint1_diamond_112_3_clip_path)" data-figma-skip-parse="true"><g transform="matrix(0.069 0 0 0.0175 69 134.5)"><rect x="0" y="0" width="1014.49" height="1057.14" fill="url(#paint1_diamond_112_3)" opacity="1" shape-rendering="crispEdges"/><rect x="0" y="0" width="1014.49" height="1057.14" transform="scale(1 -1)" fill="url(#paint1_diamond_112_3)" opacity="1" shape-rendering="crispEdges"/><rect x="0" y="0" width="1014.49" height="1057.14" transform="scale(-1 1)" fill="url(#paint1_diamond_112_3)" opacity="1" shape-rendering="crispEdges"/><rect x="0" y="0" width="1014.49" height="1057.14" transform="scale(-1)" fill="url(#paint1_diamond_112_3)" opacity="1" shape-rendering="crispEdges"/></g></g><path d="M21.4062 149H13.7969V147.625L15.6406 147.469C15.724 147.469 15.8021 147.417 15.875 147.312C15.9479 147.198 15.9844 147.094 15.9844 147C15.9844 146.958 15.9792 146.932 15.9688 146.922L13.7656 141.062H6.375L4.25 146.828C4.23958 146.849 4.23438 146.88 4.23438 146.922C4.23438 147.047 4.28646 147.172 4.39062 147.297C4.50521 147.411 4.60938 147.469 4.70312 147.469L6.59375 147.625V149H0.15625V147.625L2.01562 147.234L9.46875 127.016H11.875L19.2969 146.766C19.3802 146.984 19.4531 147.13 19.5156 147.203C19.5781 147.276 19.7292 147.333 19.9688 147.375L21.4062 147.625V149ZM13.1875 139.531L10.0469 131.141L6.9375 139.531H13.1875ZM58.8444 128.906L56.985 129.031C56.7558 129.042 56.584 129.125 56.4694 129.281C56.3652 129.427 56.3131 129.578 56.3131 129.734V141.891C56.3131 144.516 55.61 146.443 54.2038 147.672C52.8079 148.901 50.7715 149.516 48.0944 149.516C45.459 149.516 43.4954 148.875 42.2038 147.594C40.9225 146.302 40.2819 144.401 40.2819 141.891V129.734C40.2819 129.578 40.2246 129.427 40.11 129.281C40.0058 129.125 39.8392 129.042 39.61 129.031L37.9069 128.906V127.531H46.0475V128.906L44.2194 129.031C43.9902 129.042 43.8183 129.125 43.7038 129.281C43.5996 129.427 43.5475 129.578 43.5475 129.734V141.062C43.5475 142.312 43.6881 143.411 43.9694 144.359C44.2506 145.307 44.7819 146.047 45.5631 146.578C46.3444 147.109 47.4746 147.375 48.9538 147.375C50.4329 147.375 51.5631 147.099 52.3444 146.547C53.136 145.984 53.6777 145.224 53.9694 144.266C54.2715 143.307 54.4225 142.24 54.4225 141.062V129.734C54.4225 129.578 54.36 129.427 54.235 129.281C54.1204 129.125 53.9485 129.042 53.7194 129.031L51.8913 128.906V127.531H58.8444V128.906ZM95.8294 149.094C95.694 149.104 95.4283 149.177 95.0325 149.312C94.6367 149.448 94.1992 149.516 93.72 149.516C92.6263 149.516 91.7565 149.333 91.1106 148.969C90.4752 148.604 89.9804 148.125 89.6263 147.531C89.2825 146.927 89.0065 146.266 88.7981 145.547C88.6002 144.828 88.3971 144.115 88.1888 143.406C87.9804 142.688 87.694 142.031 87.3294 141.438C86.9648 140.833 86.4544 140.349 85.7981 139.984C85.1419 139.62 84.2513 139.438 83.1263 139.438C82.7929 139.438 82.4752 139.448 82.1731 139.469C81.8815 139.49 81.72 139.5 81.6888 139.5V146.797C81.6888 146.953 81.7408 147.104 81.845 147.25C81.9596 147.396 82.1315 147.479 82.3606 147.5L84.0481 147.625V149H76.095V147.625L77.7513 147.5C77.9804 147.479 78.1523 147.396 78.2669 147.25C78.3919 147.104 78.4544 146.953 78.4544 146.797V129.734C78.4544 129.578 78.3919 129.427 78.2669 129.281C78.1523 129.125 77.9804 129.042 77.7513 129.031L76.095 128.906V127.531H84.4388C86.8658 127.531 88.7773 127.953 90.1731 128.797C91.5794 129.63 92.2825 131.104 92.2825 133.219C92.2825 134.333 92.0325 135.25 91.5325 135.969C91.0325 136.677 90.3815 137.234 89.5794 137.641C88.7877 138.047 87.9388 138.354 87.0325 138.562C88.0221 138.802 88.7929 139.146 89.345 139.594C89.9075 140.031 90.3242 140.531 90.595 141.094C90.8658 141.656 91.069 142.24 91.2044 142.844C91.3398 143.448 91.4752 144.036 91.6106 144.609C91.746 145.182 91.9492 145.698 92.22 146.156C92.5013 146.615 92.9231 146.979 93.4856 147.25C94.0481 147.521 94.8294 147.656 95.8294 147.656V149.094ZM88.7981 133.359C88.7981 131.995 88.3606 130.943 87.4856 130.203C86.621 129.464 85.1783 129.094 83.1575 129.094H81.6888V137.859C81.7408 137.859 81.9544 137.865 82.3294 137.875C82.7148 137.885 83.0325 137.891 83.2825 137.891C85.0638 137.891 86.4283 137.562 87.3763 136.906C88.3242 136.25 88.7981 135.068 88.7981 133.359ZM132.611 149H125.002V147.625L126.846 147.469C126.929 147.469 127.007 147.417 127.08 147.312C127.153 147.198 127.189 147.094 127.189 147C127.189 146.958 127.184 146.932 127.174 146.922L124.971 141.062H117.58L115.455 146.828C115.445 146.849 115.439 146.88 115.439 146.922C115.439 147.047 115.491 147.172 115.596 147.297C115.71 147.411 115.814 147.469 115.908 147.469L117.799 147.625V149H111.361V147.625L113.221 147.234L120.674 127.016H123.08L130.502 146.766C130.585 146.984 130.658 147.13 130.721 147.203C130.783 147.276 130.934 147.333 131.174 147.375L132.611 147.625V149ZM124.393 139.531L121.252 131.141L118.143 139.531H124.393Z" data-figma-gradient-fill="{&#34;type&#34;:&#34;GRADIENT_DIAMOND&#34;,&#34;stops&#34;:[{&#34;color&#34;:{&#34;r&#34;:0.32549020648002625,&#34;g&#34;:0.48235294222831726,&#34;b&#34;:0.99607843160629272,&#34;a&#34;:1.0},&#34;position&#34;:0.0},{&#34;color&#34;:{&#34;r&#34;:0.83137255907058716,&#34;g&#34;:0.45098039507865906,&#34;b&#34;:0.58039218187332153,&#34;a&#34;:1.0},&#34;position&#34;:1.0}],&#34;stopsVar&#34;:[{&#34;color&#34;:{&#34;r&#34;:0.32549020648002625,&#34;g&#34;:0.48235294222831726,&#34;b&#34;:0.99607843160629272,&#34;a&#34;:1.0},&#34;position&#34;:0.0},{&#34;color&#34;:{&#34;r&#34;:0.83137255907058716,&#34;g&#34;:0.45098039507865906,&#34;b&#34;:0.58039218187332153,&#34;a&#34;:1.0},&#34;position&#34;:1.0}],&#34;transform&#34;:{&#34;m00&#34;:138.0,&#34;m01&#34;:0.0,&#34;m02&#34;:0.0,&#34;m10&#34;:0.0,&#34;m11&#34;:35.0,&#34;m12&#34;:117.0},&#34;opacity&#34;:1.0,&#34;blendMode&#34;:&#34;NORMAL&#34;,&#34;visible&#34;:true}"/>
<defs>
<clipPath id="paint1_diamond_112_3_clip_path"><path d="M21.4062 149H13.7969V147.625L15.6406 147.469C15.724 147.469 15.8021 147.417 15.875 147.312C15.9479 147.198 15.9844 147.094 15.9844 147C15.9844 146.958 15.9792 146.932 15.9688 146.922L13.7656 141.062H6.375L4.25 146.828C4.23958 146.849 4.23438 146.88 4.23438 146.922C4.23438 147.047 4.28646 147.172 4.39062 147.297C4.50521 147.411 4.60938 147.469 4.70312 147.469L6.59375 147.625V149H0.15625V147.625L2.01562 147.234L9.46875 127.016H11.875L19.2969 146.766C19.3802 146.984 19.4531 147.13 19.5156 147.203C19.5781 147.276 19.7292 147.333 19.9688 147.375L21.4062 147.625V149ZM13.1875 139.531L10.0469 131.141L6.9375 139.531H13.1875ZM58.8444 128.906L56.985 129.031C56.7558 129.042 56.584 129.125 56.4694 129.281C56.3652 129.427 56.3131 129.578 56.3131 129.734V141.891C56.3131 144.516 55.61 146.443 54.2038 147.672C52.8079 148.901 50.7715 149.516 48.0944 149.516C45.459 149.516 43.4954 148.875 42.2038 147.594C40.9225 146.302 40.2819 144.401 40.2819 141.891V129.734C40.2819 129.578 40.2246 129.427 40.11 129.281C40.0058 129.125 39.8392 129.042 39.61 129.031L37.9069 128.906V127.531H46.0475V128.906L44.2194 129.031C43.9902 129.042 43.8183 129.125 43.7038 129.281C43.5996 129.427 43.5475 129.578 43.5475 129.734V141.062C43.5475 142.312 43.6881 143.411 43.9694 144.359C44.2506 145.307 44.7819 146.047 45.5631 146.578C46.3444 147.109 47.4746 147.375 48.9538 147.375C50.4329 147.375 51.5631 147.099 52.3444 146.547C53.136 145.984 53.6777 145.224 53.9694 144.266C54.2715 143.307 54.4225 142.24 54.4225 141.062V129.734C54.4225 129.578 54.36 129.427 54.235 129.281C54.1204 129.125 53.9485 129.042 53.7194 129.031L51.8913 128.906V127.531H58.8444V128.906ZM95.8294 149.094C95.694 149.104 95.4283 149.177 95.0325 149.312C94.6367 149.448 94.1992 149.516 93.72 149.516C92.6263 149.516 91.7565 149.333 91.1106 148.969C90.4752 148.604 89.9804 148.125 89.6263 147.531C89.2825 146.927 89.0065 146.266 88.7981 145.547C88.6002 144.828 88.3971 144.115 88.1888 143.406C87.9804 142.688 87.694 142.031 87.3294 141.438C86.9648 140.833 86.4544 140.349 85.7981 139.984C85.1419 139.62 84.2513 139.438 83.1263 139.438C82.7929 139.438 82.4752 139.448 82.1731 139.469C81.8815 139.49 81.72 139.5 81.6888 139.5V146.797C81.6888 146.953 81.7408 147.104 81.845 147.25C81.9596 147.396 82.1315 147.479 82.3606 147.5L84.0481 147.625V149H76.095V147.625L77.7513 147.5C77.9804 147.479 78.1523 147.396 78.2669 147.25C78.3919 147.104 78.4544 146.953 78.4544 146.797V129.734C78.4544 129.578 78.3919 129.427 78.2669 129.281C78.1523 129.125 77.9804 129.042 77.7513 129.031L76.095 128.906V127.531H84.4388C86.8658 127.531 88.7773 127.953 90.1731 128.797C91.5794 129.63 92.2825 131.104 92.2825 133.219C92.2825 134.333 92.0325 135.25 91.5325 135.969C91.0325 136.677 90.3815 137.234 89.5794 137.641C88.7877 138.047 87.9388 138.354 87.0325 138.562C88.0221 138.802 88.7929 139.146 89.345 139.594C89.9075 140.031 90.3242 140.531 90.595 141.094C90.8658 141.656 91.069 142.24 91.2044 142.844C91.3398 143.448 91.4752 144.036 91.6106 144.609C91.746 145.182 91.9492 145.698 92.22 146.156C92.5013 146.615 92.9231 146.979 93.4856 147.25C94.0481 147.521 94.8294 147.656 95.8294 147.656V149.094ZM88.7981 133.359C88.7981 131.995 88.3606 130.943 87.4856 130.203C86.621 129.464 85.1783 129.094 83.1575 129.094H81.6888V137.859C81.7408 137.859 81.9544 137.865 82.3294 137.875C82.7148 137.885 83.0325 137.891 83.2825 137.891C85.0638 137.891 86.4283 137.562 87.3763 136.906C88.3242 136.25 88.7981 135.068 88.7981 133.359ZM132.611 149H125.002V147.625L126.846 147.469C126.929 147.469 127.007 147.417 127.08 147.312C127.153 147.198 127.189 147.094 127.189 147C127.189 146.958 127.184 146.932 127.174 146.922L124.971 141.062H117.58L115.455 146.828C115.445 146.849 115.439 146.88 115.439 146.922C115.439 147.047 115.491 147.172 115.596 147.297C115.71 147.411 115.814 147.469 115.908 147.469L117.799 147.625V149H111.361V147.625L113.221 147.234L120.674 127.016H123.08L130.502 146.766C130.585 146.984 130.658 147.13 130.721 147.203C130.783 147.276 130.934 147.333 131.174 147.375L132.611 147.625V149ZM124.393 139.531L121.252 131.141L118.143 139.531H124.393Z"/></clipPath><radialGradient id="paint0_radial_112_3" cx="0" cy="0" r="1" gradientUnits="userSpaceOnUse" gradientTransform="translate(69 60) rotate(90) scale(71 82.0201)">
<stop stop-color="#FF7171"/>
<stop offset="1" stop-color="#537BFF"/>
</radialGradient>
<linearGradient id="paint1_diamond_112_3" x1="0" y1="0" x2="500" y2="500" gradientUnits="userSpaceOnUse">
<stop stop-color="#537BFE"/>
<stop offset="1" stop-color="#D47394"/>
</linearGradient>
</defs>
</svg>
