<svg width="380" height="114" viewBox="0 0 380 114" fill="none" xmlns="http://www.w3.org/2000/svg">
<path d="M374.5 0C375.881 0 377 1.11929 377 2.5C377 3.88071 375.881 5 374.5 5H243.515C243.411 5.72246 243.081 6.41875 242.525 6.97461L194.449 55.0498L246.475 107.075C246.752 107.353 246.973 107.666 247.138 108H377.5C378.881 108 380 109.119 380 110.5C380 111.881 378.881 113 377.5 113H244.589C244.187 113.068 243.777 113.065 243.376 112.993C242.616 112.956 241.948 112.582 241.515 112.015L189.5 60L138.484 111.015C138.051 111.581 137.384 111.956 136.625 111.993C136.224 112.066 135.814 112.068 135.412 112H2.5C1.11929 112 0 110.881 0 109.5C0 108.119 1.11929 107 2.5 107H132.863C133.028 106.666 133.248 106.353 133.525 106.075L184.55 55.0498L137.475 7.97461C137.049 7.54875 136.756 7.0403 136.596 6.50098H5.5C4.11929 6.50098 3 5.38169 3 4.00098C3 2.62026 4.11929 1.50098 5.5 1.50098H139.5C140.209 1.50098 140.847 1.79765 141.302 2.27148C141.71 2.44218 142.093 2.6932 142.425 3.02539L189.5 50.1006L237.575 2.02539C237.766 1.83454 237.974 1.67075 238.193 1.5332C238.571 0.632472 239.462 0 240.5 0H374.5ZM267.391 37.8018L263.506 38.0674C263.019 38.0895 262.654 38.2666 262.41 38.5986C262.189 38.9085 262.078 39.2295 262.078 39.5615V63.6338C262.078 66.29 262.377 68.6253 262.975 70.6396C263.572 72.654 264.701 74.2256 266.361 75.3545C268.021 76.4834 270.423 77.0479 273.566 77.0479C276.71 77.0479 279.111 76.4613 280.771 75.2881C282.454 74.0928 283.605 72.4769 284.225 70.4404C284.867 68.404 285.188 66.1351 285.188 63.6338V39.5615C285.188 39.2295 285.055 38.9085 284.789 38.5986C284.546 38.2666 284.18 38.0895 283.693 38.0674L279.809 37.8018V34.8799H294.584V37.8018L290.633 38.0674C290.146 38.0895 289.781 38.2666 289.537 38.5986C289.316 38.9085 289.205 39.2295 289.205 39.5615V65.3936C289.205 70.9717 287.711 75.0667 284.723 77.6787C281.757 80.2907 277.429 81.5967 271.74 81.5967C266.14 81.5967 261.967 80.2354 259.223 77.5127C256.5 74.7679 255.139 70.7282 255.139 65.3936V39.5615C255.139 39.2295 255.017 38.9085 254.773 38.5986C254.552 38.2666 254.198 38.0895 253.711 38.0674L250.092 37.8018V34.8799H267.391V37.8018ZM348.142 33.7842C350.576 33.7842 352.724 34.0277 354.583 34.5146C356.442 34.9795 358.092 35.4444 359.53 35.9092L360.128 36.1084V46.7002H356.243L355.214 40.1924C355.17 39.8825 355.026 39.6611 354.782 39.5283C354.561 39.3734 354.351 39.1962 354.151 38.9971C353.974 38.8642 353.421 38.5763 352.491 38.1338C351.584 37.6912 350.167 37.4697 348.241 37.4697C345.519 37.4698 343.371 38.2335 341.8 39.7607C340.228 41.2659 339.442 43.1697 339.442 45.4717C339.442 47.5523 340.25 49.279 341.866 50.6514C343.504 52.0237 345.851 53.2966 348.905 54.4697C353.022 56.0192 356.199 57.768 358.435 59.7158C360.692 61.6416 361.821 64.3089 361.821 67.7178C361.821 69.9977 361.202 72.2002 359.962 74.3252C358.744 76.4501 356.808 78.1989 354.151 79.5713C351.517 80.9215 348.064 81.5967 343.792 81.5967C341.357 81.5967 339.232 81.3864 337.417 80.9658C335.602 80.5453 334.196 80.1246 333.2 79.7041L331.706 79.0732V67.0205H335.989L336.886 74.7236C336.93 74.9892 337.074 75.2771 337.317 75.5869C337.561 75.8967 337.793 76.1071 338.015 76.2178C338.125 76.2399 338.767 76.5056 339.94 77.0146C341.136 77.5237 342.785 77.7783 344.888 77.7783C347.787 77.7783 350.178 77.0699 352.06 75.6533C353.941 74.2367 354.882 72.2666 354.882 69.7432C354.882 68.3708 354.494 67.1755 353.72 66.1572C352.967 65.1169 351.982 64.1982 350.765 63.4014C349.547 62.6046 348.241 61.885 346.847 61.2432C345.474 60.5792 344.168 59.9482 342.929 59.3506C341.069 58.4652 339.343 57.5244 337.749 56.5283C336.155 55.5101 334.871 54.2594 333.897 52.7764C332.924 51.2933 332.437 49.4006 332.437 47.0986C332.437 44.3982 333.123 42.0517 334.495 40.0596C335.867 38.0675 337.738 36.529 340.106 35.4443C342.475 34.3376 345.153 33.7842 348.142 33.7842ZM22.1738 36.5732L44.8184 70.7725V39.5615C44.8184 39.2295 44.6966 38.9085 44.4531 38.5986C44.2096 38.2666 43.8555 38.0895 43.3906 38.0674L39.5059 37.8018V34.8799H54.0488V37.8018L50.2637 38.0674C49.7767 38.0895 49.4115 38.2666 49.168 38.5986C48.9466 38.9085 48.8359 39.2295 48.8359 39.5615V80.501H43.5234L18.2227 42.417V75.8193C18.2227 76.1514 18.3333 76.4723 18.5547 76.7822C18.7982 77.0921 19.1634 77.2692 19.6504 77.3135L23.5352 77.5791V80.501H8.82617V77.5791L12.7109 77.3135C13.1979 77.2692 13.5632 77.0921 13.8066 76.7822C14.0723 76.4723 14.2051 76.1514 14.2051 75.8193V39.5615C14.2051 39.2295 14.0723 38.9085 13.8066 38.5986C13.5632 38.2666 13.1979 38.0895 12.7109 38.0674L8.69336 37.8018V34.8799H22.1738V36.5732ZM123.942 45.0068H119.858L118.829 39.4287C118.807 39.0967 118.674 38.7978 118.431 38.5322C118.187 38.2667 117.91 38.1338 117.601 38.1338H102.858V55.0674H113.052C113.362 55.0674 113.638 54.9345 113.882 54.6689C114.147 54.4033 114.28 54.1488 114.28 53.9053L114.978 49.2236H118.431V64.3975H114.978L114.28 59.6826C114.28 59.4391 114.147 59.1735 113.882 58.8857C113.616 58.5981 113.339 58.4541 113.052 58.4541H102.858V77.1807H120.058C120.345 77.1807 120.611 77.0256 120.854 76.7158C121.12 76.3838 121.264 76.1071 121.286 75.8857L122.515 69.1455H126.167V80.501H90.9053V77.5791L94.4248 77.3135C94.9117 77.2692 95.277 77.092 95.5205 76.7822C95.7861 76.4723 95.9189 76.1514 95.9189 75.8193V39.5615C95.9189 39.2295 95.7861 38.9085 95.5205 38.5986C95.277 38.2667 94.9117 38.0895 94.4248 38.0674L90.9053 37.8018V34.8799H123.942V45.0068Z" fill="#B5E4CC"/>
</svg>
