<svg width="252" height="154" viewBox="0 0 252 154" fill="none" xmlns="http://www.w3.org/2000/svg">
<path d="M2.95632 91V64.0909H7.01634V76.9411H7.34482L18.6314 64.0909H23.7425L12.8896 76.2053L23.782 91H18.8942L10.196 78.9776L7.01634 82.6303V91H2.95632ZM49.3467 64.0909V91H45.2866V64.0909H49.3467ZM94.7384 64.0909V91H91.0069L77.329 71.2649H77.0793V91H73.0193V64.0909H76.7771L90.4682 83.8523H90.7178V64.0909H94.7384ZM122.481 64.0909V91H118.421V64.0909H122.481ZM144.826 67.5859V64.0909H165.652V67.5859H157.256V91H153.209V67.5859H144.826ZM192.074 64.0909V91H188.014V64.0909H192.074ZM238.097 72.8416H233.997C233.839 71.9657 233.546 71.1948 233.117 70.5291C232.688 69.8634 232.162 69.2984 231.54 68.8342C230.918 68.3699 230.222 68.0195 229.451 67.783C228.689 67.5465 227.879 67.4283 227.02 67.4283C225.47 67.4283 224.081 67.8181 222.855 68.5977C221.638 69.3772 220.674 70.5204 219.964 72.027C219.264 73.5336 218.913 75.3731 218.913 77.5455C218.913 79.7353 219.264 81.5836 219.964 83.0902C220.674 84.5968 221.642 85.7356 222.868 86.5064C224.095 87.2772 225.474 87.6626 227.007 87.6626C227.857 87.6626 228.663 87.5488 229.425 87.321C230.196 87.0845 230.892 86.7385 231.514 86.283C232.136 85.8275 232.661 85.2713 233.091 84.6143C233.529 83.9486 233.831 83.1866 233.997 82.3281L238.097 82.3413C237.878 83.6639 237.453 84.8815 236.822 85.994C236.2 87.0977 235.399 88.0524 234.418 88.8583C233.445 89.6554 232.333 90.273 231.08 90.7109C229.828 91.1489 228.461 91.3679 226.981 91.3679C224.651 91.3679 222.575 90.8161 220.753 89.7124C218.931 88.5999 217.494 87.0101 216.443 84.9428C215.401 82.8756 214.88 80.4098 214.88 77.5455C214.88 74.6723 215.405 72.2066 216.456 70.1481C217.507 68.0808 218.944 66.4954 220.766 65.3917C222.588 64.2792 224.66 63.723 226.981 63.723C228.409 63.723 229.74 63.9289 230.975 64.3406C232.219 64.7435 233.336 65.3391 234.326 66.1275C235.315 66.9071 236.134 67.8619 236.783 68.9918C237.431 70.113 237.869 71.3963 238.097 72.8416Z" fill="#517AFF"/>
<path d="M189.504 108C177.576 135.088 150.497 154 119 154C87.5027 154 60.4236 135.088 48.4961 108H53.998C65.5829 132.248 90.3347 149 119 149C147.665 149 172.417 132.248 184.002 108H189.504ZM119 0C152.401 0 180.835 21.2678 191.499 51H186.161C175.734 24.0853 149.597 5 119 5C88.4035 5 62.2655 24.0853 51.8389 51H46.501C57.1651 21.2678 85.5985 0 119 0Z" fill="#517AFF"/>
<circle cx="53" cy="111" r="10" fill="#517AFF"/>
<circle cx="188" cy="45" r="10" fill="#517AFF"/>
</svg>
